<!DOCTYPE svg PUBLIC "-//W3C//DTD SVG 1.1//EN" "http://www.w3.org/Graphics/SVG/1.1/DTD/svg11.dtd">
<!-- Uploaded to: SVG Repo, www.svgrepo.com, Transformed by: SVG Repo Mixer Tools -->
<svg version="1.1" id="Icons" xmlns="http://www.w3.org/2000/svg" xmlns:xlink="http://www.w3.org/1999/xlink" viewBox="0 0 32 32" xml:space="preserve" width="800px" height="800px" fill="#000000">
<g id="SVGRepo_bgCarrier" stroke-width="0"/>
<g id="SVGRepo_tracerCarrier" stroke-linecap="round" stroke-linejoin="round"/>
<g id="SVGRepo_iconCarrier"> <style type="text/css"> .st0{fill:none;stroke:#16a34a;stroke-width:2;stroke-linecap:round;stroke-linejoin:round;stroke-miterlimit:10;} </style> <line class="st0" x1="6" y1="7" x2="6" y2="9"/> <path class="st0" d="M8.4,16.6c0.5,0.5,1.3,0.5,1.8,0l0.8-0.8l0.8,0.8c0.5,0.5,1.3,0.5,1.8,0c0.5-0.5,0.5-1.4,0-1.9l-0.8-0.8L11,12 l-1.8,1.9l-0.8,0.8C7.9,15.2,7.9,16.1,8.4,16.6z"/> <line class="st0" x1="10" y1="20" x2="12" y2="20"/> <line class="st0" x1="11" y1="17" x2="11" y2="19"/> <circle class="st0" cx="23" cy="22" r="7"/> <line class="st0" x1="23" y1="19" x2="23" y2="25"/> <line class="st0" x1="20" y1="22" x2="26" y2="22"/> <path class="st0" d="M18.9,27.7C18.2,28.5,17.2,29,16,29H6c-2.2,0-4-1.8-4-4V7c0-2.2,1.8-4,4-4h10c2.2,0,4,1.8,4,4v8.7"/> </g>
</svg>